<?xml version="1.0" encoding="UTF-8" standalone="no"?>
<!-- Created with Inkscape (http://www.inkscape.org/) -->

<svg
   xmlns:dc="http://purl.org/dc/elements/1.1/"
   xmlns:cc="http://creativecommons.org/ns#"
   xmlns:rdf="http://www.w3.org/1999/02/22-rdf-syntax-ns#"
   xmlns:svg="http://www.w3.org/2000/svg"
   xmlns="http://www.w3.org/2000/svg"
   xmlns:sodipodi="http://sodipodi.sourceforge.net/DTD/sodipodi-0.dtd"
   xmlns:inkscape="http://www.inkscape.org/namespaces/inkscape"
   width="500"
   height="500"
   viewBox="0 0 499.99999 500.00001"
   id="svg10611"
   version="1.1"
   inkscape:version="0.91 r"
   sodipodi:docname="batscanner-logo_trial11.svg"
   inkscape:export-filename="/home/x/Downloads/icon-48x48.png"
   inkscape:export-xdpi="8.6400003"
   inkscape:export-ydpi="8.6400003">
  <defs
     id="defs10613">
    <clipPath
       clipPathUnits="userSpaceOnUse"
       id="clipPath10537-6">
      <rect
         style="fill:#000000;fill-opacity:1;fill-rule:nonzero;stroke:none;stroke-width:5;stroke-miterlimit:4;stroke-dasharray:none;stroke-opacity:1"
         id="rect10539-0"
         width="250"
         height="500"
         x="0"
         y="163.71552" />
    </clipPath>
  </defs>
  <sodipodi:namedview
     id="base"
     pagecolor="#ffffff"
     bordercolor="#666666"
     borderopacity="1.0"
     inkscape:pageopacity="0.0"
     inkscape:pageshadow="2"
     inkscape:zoom="0.35"
     inkscape:cx="-153.57143"
     inkscape:cy="520"
     inkscape:document-units="px"
     inkscape:current-layer="layer1"
     showgrid="false"
     units="px"
     inkscape:window-width="1920"
     inkscape:window-height="1028"
     inkscape:window-x="0"
     inkscape:window-y="0"
     inkscape:window-maximized="1" />
  <metadata
     id="metadata10616">
    <rdf:RDF>
      <cc:Work
         rdf:about="">
        <dc:format>image/svg+xml</dc:format>
        <dc:type
           rdf:resource="http://purl.org/dc/dcmitype/StillImage" />
        <dc:title></dc:title>
      </cc:Work>
    </rdf:RDF>
  </metadata>
  <g
     inkscape:label="Layer 1"
     inkscape:groupmode="layer"
     id="layer1"
     transform="translate(0,-552.3621)">
    <g
       id="g10578"
       transform="translate(-655.71171,454.37349)">
      <path
         sodipodi:nodetypes="ssscsscasssssscscscccscsccssssssssscsssss"
         inkscape:connector-curvature="0"
         id="path10504-6"
         d="m 899.66202,579.88896 c -10.86005,-36.42029 -25.09311,-62.18149 -42.58108,-77.06988 -8.8153,-7.50488 -11.70048,-8.86486 -20.89027,-9.84684 l -10.66238,-1.1393 -1.50651,-14.00382 c -3.88189,-36.08445 -19.30811,-63.60824 -49.97021,-89.15784 l -15.23998,-12.69895 c 0,0 0.0869,-7.60276 -0.69549,-11.29289 -17.79917,-83.94634 -38.02791,-141.26022 -89.82611,-241.36656 -7.20697,-13.92836 -12.86223,-25.324266 -12.56725,-25.324266 0.29502,0 8.10163,6.426146 17.34804,14.280316 9.24643,7.85418 23.60675,19.86123 31.91179,26.68233 20.52358,16.85632 45.11721,37.25969 103.81331,86.12549 27.33751,22.75907 51.54006,41.91003 53.7835,42.55767 2.41086,0.69598 4.86089,0.0659 5.99096,-1.54034 1.0516,-1.49481 4.24108,-15.44096 7.08771,-30.99143 2.84666,-15.55048 5.49178,-29.19447 5.87812,-30.31996 0.38633,-1.12554 2.20425,5.66355 4.03981,15.08677 l 3.33745,17.1332 16.77485,0 16.77485,0 3.33741,-17.1332 c 1.8356,-9.42322 3.65349,-16.21231 4.03984,-15.08677 0.38632,1.12549 3.03147,14.76948 5.87812,30.31996 2.84662,15.55047 6.03611,29.49662 7.08771,30.99143 1.13066,1.60724 3.57884,2.23593 5.99095,1.5385 2.24345,-0.64862 28.71104,-21.73212 58.81694,-46.85224 30.1058,-25.12009 58.7016,-48.8603 63.5463,-52.75606 4.8446,-3.89575 25.7388,-21.24751 46.4315,-38.55944 20.6927,-17.3119 37.8425,-31.476226 38.1107,-31.476226 0.2681,0 -5.4091,11.395906 -12.616,25.324266 -52.0295,100.55333 -86.9363,194.42672 -89.8405,241.6041 -0.6958,11.30301 -0.8239,11.61291 -6.4979,15.71004 -19.6382,14.18078 -35.1222,31.4495 -45.2977,50.51878 -8.12082,15.21882 -12.14436,28.54434 -14.09573,46.68332 l -1.5065,14.00382 -10.6624,1.1393 c -9.18978,0.98198 -12.07495,2.34196 -20.89026,9.84684 -17.48798,14.88839 -31.72103,40.64959 -42.58108,77.06988 -2.9684,9.95479 -5.6802,18.09965 -6.02625,18.09965 -0.34606,0 -3.05787,-8.14486 -6.02626,-18.09965 z"
         style="fill:#dd0031;fill-opacity:1" />
      <path
         transform="matrix(-1,0,0,1,1155.7117,-69.511386)"
         clip-path="url(#clipPath10537-6)"
         style="display:inline;fill:#c3002f;fill-opacity:1"
         d="m 243.9503,649.40035 c -10.86005,-36.42029 -25.0931,-62.18149 -42.58107,-77.06988 -8.81531,-7.50488 -11.70049,-8.86486 -20.89028,-9.84684 l -10.66237,-1.1393 -1.50652,-14.00382 c -3.88189,-36.08445 -19.30811,-63.60824 -49.97021,-89.15784 l -15.23998,-12.69895 c 0,0 0.0869,-7.60276 -0.69549,-11.29289 C 84.605218,350.24449 64.376477,292.93061 12.578272,192.82427 5.371318,178.89591 -0.28394835,167.5 0.01103583,167.5 c 0.29501543,0 8.10162647,6.42615 17.34803017,14.28032 9.246424,7.85418 23.606745,19.86123 31.911785,26.68233 20.523579,16.85632 45.117213,37.25969 103.813309,86.12549 27.33751,22.75907 51.54006,41.91003 53.78351,42.55767 2.41085,0.69598 4.86088,0.0659 5.99095,-1.54034 1.0516,-1.49481 4.24108,-15.44096 7.08771,-30.99143 2.84666,-15.55048 5.49179,-29.19447 5.87812,-30.31996 0.38633,-1.12554 2.20425,5.66355 4.03981,15.08677 l 3.33745,17.1332 16.77485,0 16.77485,0 3.33741,-17.1332 c 1.8356,-9.42322 3.6535,-16.21231 4.03984,-15.08677 0.38632,1.12549 3.03148,14.76948 5.87812,30.31996 2.84663,15.55047 6.03611,29.49662 7.08772,30.99143 1.13065,1.60724 3.57883,2.23593 5.99094,1.5385 2.24345,-0.64862 28.71104,-21.73212 58.81691,-46.85224 30.10584,-25.12009 58.70169,-48.8603 63.5463,-52.75606 4.84462,-3.89575 25.73882,-21.24751 46.43152,-38.55944 C 482.5729,181.66433 499.72272,167.5 499.99088,167.5 c 0.26816,0 -5.40907,11.39591 -12.61603,25.32427 -52.02949,100.55333 -86.9363,194.42672 -89.84044,241.6041 -0.69579,11.30301 -0.82395,11.61291 -6.49788,15.71004 -19.63823,14.18078 -35.12225,31.4495 -45.29771,50.51878 -8.12086,15.21882 -12.1444,28.54434 -14.09576,46.68332 l -1.50651,14.00382 -10.66239,1.1393 c -9.18979,0.98198 -12.07496,2.34196 -20.89027,9.84684 -17.48798,14.88839 -31.72103,40.64959 -42.58108,77.06988 -2.9684,9.95479 -5.6802,18.09965 -6.02625,18.09965 -0.34605,0 -3.05786,-8.14486 -6.02626,-18.09965 z"
         id="path10525-4"
         inkscape:connector-curvature="0"
         sodipodi:nodetypes="ssscsscasssssscscscccscsccssssssssscsssss" />
    </g>
    <path
       style="display:inline;fill:#ffffff;fill-rule:nonzero;stroke:none;stroke-width:8.53697872;stroke-miterlimit:4;stroke-dasharray:none;stroke-opacity:1"
       inkscape:connector-curvature="0"
       id="path4200"
       d="m 248.61809,698.88245 -87.8587,197.00286 0,0 32.7583,4e-5 0,0 17.6623,-44.08033 74.5743,-6e-5 17.66231,44.08036 0,0 32.75828,-2e-5 0,0 -87.55679,-197.00286 0,0 0,0 0,0 0,0 z m 25.6631,125.74966 -51.3263,2e-5 25.6633,-61.74265 25.663,61.74262 z"
       class="st2" />
  </g>
</svg>
