<?xml version="1.0" encoding="UTF-8" standalone="no"?>
<!-- Generator: Adobe Illustrator 19.1.0, SVG Export Plug-In . SVG Version: 6.00 Build 0)  -->

<svg
   xmlns:dc="http://purl.org/dc/elements/1.1/"
   xmlns:cc="http://creativecommons.org/ns#"
   xmlns:rdf="http://www.w3.org/1999/02/22-rdf-syntax-ns#"
   xmlns:svg="http://www.w3.org/2000/svg"
   xmlns="http://www.w3.org/2000/svg"
   xmlns:sodipodi="http://sodipodi.sourceforge.net/DTD/sodipodi-0.dtd"
   xmlns:inkscape="http://www.inkscape.org/namespaces/inkscape"
   version="1.1"
   id="Layer_1"
   x="0px"
   y="0px"
   viewBox="0 0 500 500"
   xml:space="preserve"
   inkscape:version="0.91 r"
   sodipodi:docname="batscanner-logo_trial6.svg"
   width="500"
   height="500"><metadata
     id="metadata4206"><rdf:RDF><cc:Work
         rdf:about=""><dc:format>image/svg+xml</dc:format><dc:type
           rdf:resource="http://purl.org/dc/dcmitype/StillImage" /><dc:title></dc:title></cc:Work></rdf:RDF></metadata><defs
     id="defs4204"><clipPath
       clipPathUnits="userSpaceOnUse"
       id="clipPath4831"><rect
         style="fill:#000000;fill-opacity:1;stroke:none;stroke-width:10;stroke-miterlimit:4;stroke-dasharray:none;stroke-opacity:1"
         id="rect4833"
         width="250"
         height="500"
         x="250"
         y="-250" /></clipPath><clipPath
       clipPathUnits="userSpaceOnUse"
       id="clipPath4841"><rect
         style="fill:#000000;fill-opacity:1;stroke:none;stroke-width:10;stroke-miterlimit:4;stroke-dasharray:none;stroke-opacity:1"
         id="rect4843"
         width="250"
         height="500"
         x="250"
         y="-250" /></clipPath><clipPath
       clipPathUnits="userSpaceOnUse"
       id="clipPath4986"><path
         inkscape:connector-curvature="0"
         id="path4988"
         d="m 249.12288,334.94629 c -2.67038,-8.29644 -6.96744,-17.22127 -11.87881,-24.67183 -5.65894,-8.58462 -13.99505,-17.16949 -22.93123,-23.61554 -18.83321,-13.58521 -44.85511,-21.76794 -78.07375,-24.55073 -9.85736,-0.82577 -15.50698,-1.02591 -28.85893,-1.02235 -12.66188,0.004 -18.67434,0.18631 -29.84091,0.90791 -2.38241,0.15395 -4.38949,0.2221 -4.46015,0.15142 -0.0707,-0.0707 0.16124,-1.50333 0.51534,-3.18369 1.1767,-5.58388 1.53168,-9.08726 1.54976,-15.29448 0.0178,-6.0625 -0.17501,-8.10951 -1.28286,-13.6311 -1.73382,-8.64153 -6.0343,-17.89714 -11.98399,-25.79228 C 54.06915,193.88226 42.43616,184.23913 27.5991,175.82874 21.1134,172.15234 11.07935,167.35322 3.4446,164.27606 L 0,162.88773 l 83.0425,-0.0648 c 45.67336,-0.0357 83.07662,-0.0307 83.11836,0.0111 0.0417,0.0417 0.37797,1.5066 0.74717,3.25524 3.29989,15.62906 9.66383,25.31429 19.81644,30.1584 3.99661,1.90691 7.17941,2.73503 16.33774,4.25079 8.77168,1.45179 12.05375,1.78284 17.8212,1.79757 6.04914,0.0155 7.8786,-0.32838 9.39251,-1.76516 0.75652,-0.71797 0.89339,-1.08829 1.38955,-3.75962 0.65507,-3.52685 0.96073,-6.89572 1.33259,-14.68714 0.15218,-3.18865 0.3937,-6.66719 0.53671,-7.73007 0.28644,-2.12891 0.97027,-4.84378 1.26613,-5.02662 0.10406,-0.0643 0.32013,0.54757 0.48017,1.35975 0.48919,2.48265 3.01593,12.41884 3.76819,14.81808 0.56124,1.79001 0.79636,2.23558 1.12748,2.1367 3.40553,-1.01706 16.24104,-1.01706 19.64655,0 0.33114,0.0989 0.56626,-0.34669 1.12749,-2.1367 0.75226,-2.39924 3.27899,-12.33543 3.7682,-14.81808 0.16001,-0.81218 0.37609,-1.42407 0.48017,-1.35975 0.29585,0.18284 0.97968,2.89771 1.26611,5.02662 0.14303,1.06288 0.38454,4.54142 0.53672,7.73007 0.37185,7.79142 0.67752,11.16029 1.33259,14.68714 0.49617,2.67133 0.63304,3.04165 1.38953,3.75962 1.51394,1.43678 3.34339,1.7806 9.39253,1.76516 5.76744,-0.0147 9.0495,-0.34578 17.8212,-1.79757 9.1583,-1.51576 12.34114,-2.34388 16.33774,-4.25079 10.1526,-4.84411 16.51654,-14.52934 19.81643,-30.1584 0.36921,-1.74865 0.70542,-3.21351 0.74717,-3.25524 0.0417,-0.0417 37.44501,-0.0467 83.11836,-0.0111 l 83.04247,0.0648 -3.44459,1.38833 c -7.63473,3.07716 -17.6688,7.87628 -24.15448,11.55268 -14.83708,8.41039 -26.47003,18.05352 -34.27825,28.41488 -5.94969,7.89514 -10.25016,17.15075 -11.98399,25.79228 -1.10785,5.52159 -1.30051,7.56859 -1.28285,13.6311 0.018,6.20722 0.37305,9.7106 1.54977,15.29448 0.35409,1.68036 0.58599,3.11302 0.51534,3.18369 -0.0707,0.0707 -2.07774,0.003 -4.46017,-0.15142 -11.16656,-0.7216 -17.17904,-0.90453 -29.8409,-0.90791 -13.35195,-0.004 -19.00157,0.19658 -28.85894,1.02235 -33.21865,2.78279 -59.24053,10.96552 -78.07375,24.55073 -8.9362,6.44605 -17.27228,15.03092 -22.93121,23.61554 -4.91138,7.45056 -9.20845,16.37539 -11.87882,24.67183 -0.39913,1.24002 -0.79385,2.2546 -0.87714,2.2546 -0.0833,0 -0.47801,-1.01458 -0.87714,-2.2546 z"
         style="fill:#dd0031;fill-opacity:1" /></clipPath></defs><sodipodi:namedview
     pagecolor="#ffffff"
     bordercolor="#666666"
     borderopacity="1"
     objecttolerance="10"
     gridtolerance="10"
     guidetolerance="10"
     inkscape:pageopacity="0"
     inkscape:pageshadow="2"
     inkscape:window-width="1920"
     inkscape:window-height="1028"
     id="namedview4202"
     showgrid="false"
     inkscape:zoom="0.847"
     inkscape:cx="51.874662"
     inkscape:cy="162.46008"
     inkscape:window-x="0"
     inkscape:window-y="0"
     inkscape:window-maximized="1"
     inkscape:current-layer="layer5" /><style
     type="text/css"
     id="style4192">
	.st0{fill:#DD0031;}
	.st1{fill:#C3002F;}
	.st2{fill:#FFFFFF;}
</style><g
     transform="translate(0,250)"
     inkscape:label="bat light"
     id="g4753"
     inkscape:groupmode="layer"><path
       inkscape:connector-curvature="0"
       id="path4755"
       d="m 249.12288,84.946297 c -2.67038,-8.29644 -6.96744,-17.22127 -11.87881,-24.67183 -5.65894,-8.58462 -13.99505,-17.16949 -22.93123,-23.61554 -18.83321,-13.58521 -44.85511,-21.76794 -78.07375,-24.55074 -9.85736,-0.82577 -15.50698,-1.02591 -28.85893,-1.02235 -12.661884,0.004 -18.674344,0.18631 -29.840914,0.90791 -2.38241,0.15395 -4.38949,0.2221 -4.46015,0.15142 -0.0707,-0.0707 0.16124,-1.50333 0.51534,-3.1836906 1.1767,-5.58388 1.53168,-9.08725962 1.54976,-15.2944795 0.0178,-6.0624999 -0.17501,-8.1095099 -1.28286,-13.6310999 -1.73382,-8.64153 -6.0343,-17.89714 -11.98399,-25.79228 -7.8082,-10.361358 -19.44119,-20.004488 -34.27825,-28.414878 C 21.1134,-77.847661 11.07935,-82.646781 3.4446,-85.723941 L 0,-87.112271 l 83.042496,-0.0648 c 45.673364,-0.0357 83.076624,-0.0307 83.118364,0.0111 0.0417,0.0417 0.37797,1.5066 0.74717,3.25524 3.29989,15.62906 9.66383,25.31429 19.81644,30.1584 3.99661,1.906908 7.17941,2.735028 16.33774,4.250788 8.77168,1.45179 12.05375,1.78284 17.8212,1.79757 6.04914,0.0155 7.8786,-0.32838 9.39251,-1.76516 0.75652,-0.71797 0.89339,-1.08829 1.38955,-3.759618 0.65507,-3.52685 0.96073,-6.89572 1.33259,-14.68714 0.15218,-3.18865 0.3937,-6.66719 0.53671,-7.73007 0.28644,-2.12891 0.97027,-4.84378 1.26613,-5.02662 0.10406,-0.0643 0.32013,0.54757 0.48017,1.35975 0.48919,2.48265 3.01593,12.41884 3.76819,14.81808 0.56124,1.79001 0.79636,2.23558 1.12748,2.1367 3.40553,-1.01706 16.24104,-1.01706 19.64655,0 0.33114,0.0989 0.56626,-0.34669 1.12749,-2.1367 0.75226,-2.39924 3.27899,-12.33543 3.7682,-14.81808 0.16001,-0.81218 0.37609,-1.42407 0.48017,-1.35975 0.29585,0.18284 0.97968,2.89771 1.26611,5.02662 0.14303,1.06288 0.38454,4.54142 0.53672,7.73007 0.37185,7.79142 0.67752,11.16029 1.33259,14.68714 0.49617,2.671328 0.63304,3.041648 1.38953,3.759618 1.51394,1.43678 3.34339,1.7806 9.39253,1.76516 5.76744,-0.0147 9.0495,-0.34578 17.8212,-1.79757 9.1583,-1.51576 12.34114,-2.34388 16.33774,-4.250788 10.1526,-4.84411 16.51654,-14.52934 19.81643,-30.1584 0.36921,-1.74865 0.70542,-3.21351 0.74717,-3.25524 0.0417,-0.0417 37.44501,-0.0467 83.11836,-0.0111 l 83.04247,0.0648 -3.44459,1.38833 c -7.63473,3.07716 -17.6688,7.87628 -24.15448,11.55268 -14.83708,8.41039 -26.47003,18.05352 -34.27825,28.414878 -5.94969,7.89514 -10.25016,17.15075 -11.98399,25.79228 -1.10785,5.52159 -1.30051,7.56859 -1.28285,13.6310999 0.018,6.20721988 0.37305,9.7105995 1.54977,15.2944795 0.35409,1.6803606 0.58599,3.1130206 0.51534,3.1836906 -0.0707,0.0707 -2.07774,0.003 -4.46017,-0.15142 -11.16656,-0.7216 -17.17904,-0.90453 -29.8409,-0.90791 -13.35195,-0.004 -19.00157,0.19658 -28.85894,1.02235 -33.21865,2.7828 -59.24053,10.96553 -78.07375,24.55074 -8.9362,6.44605 -17.27228,15.03092 -22.93121,23.61554 -4.91138,7.45056 -9.20845,16.37539 -11.87882,24.67183 -0.39913,1.24002 -0.79385,2.2546 -0.87714,2.2546 -0.0833,0 -0.47801,-1.01458 -0.87714,-2.2546 z"
       style="fill:#dd0031;fill-opacity:1" /></g><g
     inkscape:groupmode="layer"
     id="layer2"
     inkscape:label="bat dark"
     transform="translate(0,250)"
     style="display:inline"><path
       style="fill:#c3002f;fill-opacity:1"
       d="m 249.12288,84.946297 c -2.67038,-8.29644 -6.96744,-17.22127 -11.87881,-24.67183 -5.65894,-8.58462 -13.99505,-17.16949 -22.93123,-23.61554 -18.83321,-13.58521 -44.85511,-21.76794 -78.07375,-24.55074 -9.85736,-0.82577 -15.50698,-1.02591 -28.85893,-1.02235 -12.661884,0.004 -18.674344,0.18631 -29.840914,0.90791 -2.38241,0.15395 -4.38949,0.2221 -4.46015,0.15142 -0.0707,-0.0707 0.16124,-1.50333 0.51534,-3.1836906 1.1767,-5.58388 1.53168,-9.08725962 1.54976,-15.2944795 0.0178,-6.0624999 -0.17501,-8.1095099 -1.28286,-13.6310999 -1.73382,-8.64153 -6.0343,-17.89714 -11.98399,-25.79228 -7.8082,-10.361358 -19.44119,-20.004488 -34.27825,-28.414878 C 21.1134,-77.847661 11.07935,-82.646781 3.4446,-85.723941 L 0,-87.112271 l 83.042496,-0.0648 c 45.673364,-0.0357 83.076624,-0.0307 83.118364,0.0111 0.0417,0.0417 0.37797,1.5066 0.74717,3.25524 3.29989,15.62906 9.66383,25.31429 19.81644,30.1584 3.99661,1.906908 7.17941,2.735028 16.33774,4.250788 8.77168,1.45179 12.05375,1.78284 17.8212,1.79757 6.04914,0.0155 7.8786,-0.32838 9.39251,-1.76516 0.75652,-0.71797 0.89339,-1.08829 1.38955,-3.759618 0.65507,-3.52685 0.96073,-6.89572 1.33259,-14.68714 0.15218,-3.18865 0.3937,-6.66719 0.53671,-7.73007 0.28644,-2.12891 0.97027,-4.84378 1.26613,-5.02662 0.10406,-0.0643 0.32013,0.54757 0.48017,1.35975 0.48919,2.48265 3.01593,12.41884 3.76819,14.81808 0.56124,1.79001 0.79636,2.23558 1.12748,2.1367 3.40553,-1.01706 16.24104,-1.01706 19.64655,0 0.33114,0.0989 0.56626,-0.34669 1.12749,-2.1367 0.75226,-2.39924 3.27899,-12.33543 3.7682,-14.81808 0.16001,-0.81218 0.37609,-1.42407 0.48017,-1.35975 0.29585,0.18284 0.97968,2.89771 1.26611,5.02662 0.14303,1.06288 0.38454,4.54142 0.53672,7.73007 0.37185,7.79142 0.67752,11.16029 1.33259,14.68714 0.49617,2.671328 0.63304,3.041648 1.38953,3.759618 1.51394,1.43678 3.34339,1.7806 9.39253,1.76516 5.76744,-0.0147 9.0495,-0.34578 17.8212,-1.79757 9.1583,-1.51576 12.34114,-2.34388 16.33774,-4.250788 10.1526,-4.84411 16.51654,-14.52934 19.81643,-30.1584 0.36921,-1.74865 0.70542,-3.21351 0.74717,-3.25524 0.0417,-0.0417 37.44501,-0.0467 83.11836,-0.0111 l 83.04247,0.0648 -3.44459,1.38833 c -7.63473,3.07716 -17.6688,7.87628 -24.15448,11.55268 -14.83708,8.41039 -26.47003,18.05352 -34.27825,28.414878 -5.94969,7.89514 -10.25016,17.15075 -11.98399,25.79228 -1.10785,5.52159 -1.30051,7.56859 -1.28285,13.6310999 0.018,6.20721988 0.37305,9.7105995 1.54977,15.2944795 0.35409,1.6803606 0.58599,3.1130206 0.51534,3.1836906 -0.0707,0.0707 -2.07774,0.003 -4.46017,-0.15142 -11.16656,-0.7216 -17.17904,-0.90453 -29.8409,-0.90791 -13.35195,-0.004 -19.00157,0.19658 -28.85894,1.02235 -33.21865,2.7828 -59.24053,10.96553 -78.07375,24.55074 -8.9362,6.44605 -17.27228,15.03092 -22.93121,23.61554 -4.91138,7.45056 -9.20845,16.37539 -11.87882,24.67183 -0.39913,1.24002 -0.79385,2.2546 -0.87714,2.2546 -0.0833,0 -0.47801,-1.01458 -0.87714,-2.2546 z"
       id="path4732"
       inkscape:connector-curvature="0"
       clip-path="url(#clipPath4841)" /></g><g
     inkscape:groupmode="layer"
     id="layer5"
     inkscape:label="wave 1"
     style="display:inline"><path
       sodipodi:type="spiral"
       style="fill:none;fill-rule:evenodd;stroke:#ffffff;stroke-width:6.26538134;stroke-linecap:butt;stroke-linejoin:miter;stroke-miterlimit:4;stroke-dasharray:none;stroke-opacity:1"
       id="path4907"
       sodipodi:cx="244.5282"
       sodipodi:cy="255.29132"
       sodipodi:expansion="1"
       sodipodi:revolution="10"
       sodipodi:radius="212.41272"
       sodipodi:argument="-62.269932"
       sodipodi:t0="0.61108392"
       d="m 284.42834,378.80868 c -68.28601,24.03935 -144.64541,-14.08522 -168.47071,-81.98486 -24.92695,-71.03926 14.7539,-150.44027 85.40572,-175.15627 73.79245,-25.814677 156.23524,15.42254 181.84183,88.82657 26.7025,76.54561 -16.09116,162.03031 -92.24743,188.52739 -79.29873,27.59043 -167.82547,-16.75975 -195.212945,-95.66829 -28.478441,-82.05181 17.428305,-173.6207 99.089145,-201.8985 84.80487,-29.366529 179.416,18.09684 208.58406,102.51 30.25468,87.5579 -18.76537,185.21138 -105.93086,215.26962 C 207.17625,450.37724 106.48034,399.80048 75.531974,309.88263 43.500787,216.81874 95.634318,113.08033 188.30454,81.241889 284.1214,48.322369 390.90237,102.0127 423.63084,197.43531 457.43874,296.00511 402.19157,405.82872 304.01656,439.44717 202.69383,474.14349 89.827524,417.33947 55.319144,316.41203 19.734351,212.33639 78.095273,96.427337 181.77514,61.029059 288.60368,24.555761 407.55553,84.473603 443.84367,190.90591 c 20.01224,58.69546 12.61831,124.59621 -19.56482,177.56168"
       clip-path="url(#clipPath4986)" /></g><g
     inkscape:groupmode="layer"
     id="layer6"
     inkscape:label="A light"
     transform="translate(0,250)"
     sodipodi:insensitive="true"><path
       style="fill:#ffffff;stroke:#dd0031;stroke-width:10;stroke-miterlimit:4;stroke-dasharray:none;stroke-opacity:1"
       inkscape:connector-curvature="0"
       id="path4200"
       d="M 250.18073,-117.92169 145,117.9217 l 0,0 39.21686,0 0,0 21.14458,-52.771099 89.27712,0 21.14458,52.771099 0,0 39.21686,0 0,0 -104.81927,-235.84339 0,0 0,0 0,0 0,0 z m 30.72288,150.542167 -61.44578,0 30.7229,-73.915665 30.72288,73.915665 z"
       class="st2" /></g><g
     transform="translate(0,250)"
     inkscape:label="A dark"
     id="g4776"
     inkscape:groupmode="layer"
     style="display:inline"
     sodipodi:insensitive="true"><path
       class="st2"
       d="M 250.18073,-117.92169 145,117.9217 l 0,0 39.21686,0 0,0 21.14458,-52.771099 89.27712,0 21.14458,52.771099 0,0 39.21686,0 0,0 -104.81927,-235.84339 0,0 0,0 0,0 0,0 z m 30.72288,150.542167 -61.44578,0 30.7229,-73.915665 30.72288,73.915665 z"
       id="path4778"
       inkscape:connector-curvature="0"
       style="fill:#ffffff;stroke:#c3002f;stroke-width:10;stroke-miterlimit:4;stroke-dasharray:none;stroke-opacity:1"
       clip-path="url(#clipPath4831)" /></g></svg>