<?xml version="1.0" encoding="UTF-8" standalone="no"?>
<!-- Generator: Adobe Illustrator 19.1.0, SVG Export Plug-In . SVG Version: 6.00 Build 0)  -->

<svg
   xmlns:dc="http://purl.org/dc/elements/1.1/"
   xmlns:cc="http://creativecommons.org/ns#"
   xmlns:rdf="http://www.w3.org/1999/02/22-rdf-syntax-ns#"
   xmlns:svg="http://www.w3.org/2000/svg"
   xmlns="http://www.w3.org/2000/svg"
   xmlns:sodipodi="http://sodipodi.sourceforge.net/DTD/sodipodi-0.dtd"
   xmlns:inkscape="http://www.inkscape.org/namespaces/inkscape"
   version="1.1"
   id="Layer_1"
   x="0px"
   y="0px"
   viewBox="0 0 250 250"
   style="enable-background:new 0 0 250 250;"
   xml:space="preserve"
   inkscape:version="0.91 r"
   sodipodi:docname="batscanner-logo_trial10.svg"><metadata
     id="metadata4206"><rdf:RDF><cc:Work
         rdf:about=""><dc:format>image/svg+xml</dc:format><dc:type
           rdf:resource="http://purl.org/dc/dcmitype/StillImage" /><dc:title></dc:title></cc:Work></rdf:RDF></metadata><defs
     id="defs4204" /><sodipodi:namedview
     pagecolor="#ffffff"
     bordercolor="#666666"
     borderopacity="1"
     objecttolerance="10"
     gridtolerance="10"
     guidetolerance="10"
     inkscape:pageopacity="0"
     inkscape:pageshadow="2"
     inkscape:window-width="1920"
     inkscape:window-height="1028"
     id="namedview4202"
     showgrid="false"
     inkscape:zoom="2.3956778"
     inkscape:cx="124.2408"
     inkscape:cy="106.30501"
     inkscape:window-x="0"
     inkscape:window-y="0"
     inkscape:window-maximized="1"
     inkscape:current-layer="layer3" /><style
     type="text/css"
     id="style4192">
	.st0{fill:#DD0031;}
	.st1{fill:#C3002F;}
	.st2{fill:#FFFFFF;}
</style><g
     inkscape:groupmode="layer"
     id="layer4"
     inkscape:label="base"
     style="display:none"
     sodipodi:insensitive="true" /><g
     inkscape:groupmode="layer"
     id="layer5"
     inkscape:label="basecol2"
     sodipodi:insensitive="true"
     style="display:none"><polygon
       style="fill:#c3002f"
       id="polygon4198"
       points="125,52.1 125,153.4 125,153.4 125,230 125,230 203.9,186.3 218.1,63.2 125,30 125,30 125,52.2 "
       class="st1"
       transform="translate(-0.59031877,-5.3128689)" /></g><g
     inkscape:groupmode="layer"
     id="layer3"
     inkscape:label="bat"
     style="display:inline"><path
       style="fill:#c3002f;fill-opacity:1;fill-rule:evenodd;stroke:#000000;stroke-width:5;stroke-miterlimit:4;stroke-dasharray:none;stroke-opacity:1"
       d="m 244.63291,19.942666 c -2.28469,5.48437 -2.59713,7.00664 -2.96235,14.43415 l -0.40822,8.30318 -3.17047,1.36113 c -11.39746,4.89299 -21.25033,16.45604 -26.0369,30.55614 -1.61777,4.76547 -1.92942,7.05203 -2.22778,16.34496 -0.19077,5.94245 -0.13629,11.342384 0.12117,11.999824 0.35666,0.91071 -0.30329,1.46374 -2.77131,2.32234 -12.10314,4.21071 -16.16452,6.37254 -22.42833,11.93837 -7.09293,6.30278 -11.37568,12.41094 -14.62139,20.8543 -3.75309,9.76323 -4.46271,23.14428 -1.73729,32.75837 0.90137,3.17955 0.65456,3.30599 -3.5144,1.80006 -9.11955,-3.29415 -21.23115,-3.57273 -31.83094,-0.73211 -16.87341,4.52191 -30.59034,17.30823 -34.626471,32.2773 -0.878665,3.25871 -1.591226,4.6614 -2.292076,4.51205 -6.546494,-1.39506 -18.838029,-2.60139 -23.436973,-2.30019 -12.185889,0.79814 -28.845255,10.38908 -37.007999,21.30579 l -3.60654,4.82331 -6.901268,0.057 c -6.701175,0.0554 -13.675638,1.22755 -19.4743627,3.27308 -1.5573077,0.54936 -2.8166897,0.75059 -2.7986144,0.44719 0.018078,-0.30339 3.301317,-6.16143 7.2960751,-13.01786 21.727816,-37.29258 47.503111,-69.94635 85.792487,-108.68738 23.110692,-23.383294 40.239092,-38.082304 57.940872,-49.722854 19.20498,-12.62905 58.02445,-35.02937 77.09713,-44.48792 8.13206,-4.0329 15.8609,-7.28298 16.07479,-6.7597 0.0469,0.11459 -1.06412,2.96739 -2.46881,6.33942 z"
       id="path9760"
       inkscape:connector-curvature="0" /></g><g
     inkscape:groupmode="layer"
     id="layer6"
     inkscape:label="A"
     style="display:inline"><path
       style="display:inline;fill:#ffffff;fill-rule:nonzero;stroke:#000000;stroke-width:8.53697872;stroke-miterlimit:4;stroke-dasharray:none;stroke-opacity:1"
       inkscape:connector-curvature="0"
       id="path4200"
       d="m 39.318778,38.117737 66.577492,173.764523 0,0 19.98249,-19.98243 0,0 -16.11491,-37.66276 45.49002,-45.49009 37.6628,16.11491 0,0 19.98242,-19.98244 0,0 -173.580312,-66.761713 0,0 0,0 0,0 0,0 z M 131.68,99.170164 100.37118,130.47902 78.362893,77.161747 131.68,99.170164 Z"
       class="st2" /></g></svg>