<?xml version="1.0" encoding="UTF-8" standalone="no"?>
<!-- Generator: Adobe Illustrator 19.1.0, SVG Export Plug-In . SVG Version: 6.00 Build 0)  -->

<svg
   xmlns:dc="http://purl.org/dc/elements/1.1/"
   xmlns:cc="http://creativecommons.org/ns#"
   xmlns:rdf="http://www.w3.org/1999/02/22-rdf-syntax-ns#"
   xmlns:svg="http://www.w3.org/2000/svg"
   xmlns="http://www.w3.org/2000/svg"
   xmlns:sodipodi="http://sodipodi.sourceforge.net/DTD/sodipodi-0.dtd"
   xmlns:inkscape="http://www.inkscape.org/namespaces/inkscape"
   version="1.1"
   id="Layer_1"
   x="0px"
   y="0px"
   viewBox="0 0 250 250"
   style="enable-background:new 0 0 250 250;"
   xml:space="preserve"
   inkscape:version="0.91 r"
   sodipodi:docname="batscanner-logo_trial8.svg"><metadata
     id="metadata4206"><rdf:RDF><cc:Work
         rdf:about=""><dc:format>image/svg+xml</dc:format><dc:type
           rdf:resource="http://purl.org/dc/dcmitype/StillImage" /><dc:title></dc:title></cc:Work></rdf:RDF></metadata><defs
     id="defs4204" /><sodipodi:namedview
     pagecolor="#ffffff"
     bordercolor="#666666"
     borderopacity="1"
     objecttolerance="10"
     gridtolerance="10"
     guidetolerance="10"
     inkscape:pageopacity="0"
     inkscape:pageshadow="2"
     inkscape:window-width="1920"
     inkscape:window-height="1028"
     id="namedview4202"
     showgrid="false"
     inkscape:zoom="2.3956778"
     inkscape:cx="124.2408"
     inkscape:cy="106.30501"
     inkscape:window-x="0"
     inkscape:window-y="0"
     inkscape:window-maximized="1"
     inkscape:current-layer="layer6" /><style
     type="text/css"
     id="style4192">
	.st0{fill:#DD0031;}
	.st1{fill:#C3002F;}
	.st2{fill:#FFFFFF;}
</style><g
     inkscape:groupmode="layer"
     id="layer4"
     inkscape:label="base"
     style="display:none"
     sodipodi:insensitive="true" /><g
     inkscape:groupmode="layer"
     id="layer5"
     inkscape:label="basecol2"
     sodipodi:insensitive="true"
     style="display:none"><polygon
       style="fill:#c3002f"
       id="polygon4198"
       points="125,52.1 125,153.4 125,153.4 125,230 125,230 203.9,186.3 218.1,63.2 125,30 125,30 125,52.2 "
       class="st1"
       transform="translate(-0.59031877,-5.3128689)" /></g><g
     inkscape:groupmode="layer"
     id="layer3"
     inkscape:label="bat"
     style="display:inline"><path
       style="fill:#c3002f;fill-opacity:1;fill-rule:evenodd;stroke:#000000;stroke-width:3.21681833;stroke-miterlimit:4;stroke-dasharray:none;stroke-opacity:1"
       d="m 238.52147,130.44081 c -3.9261,1.61696 -4.85327,2.22836 -8.79135,5.79729 l -4.40231,3.98974 -2.29006,-0.91436 c -8.2324,-3.28704 -19.05497,-2.4228 -28.59938,2.28381 -3.22578,1.59069 -4.53879,2.58872 -9.38577,7.13414 -3.09943,2.90662 -5.80074,5.66302 -6.00288,6.12536 -0.28,0.64046 -0.89298,0.58643 -2.57409,-0.22689 -8.24423,-3.98845 -11.38914,-4.9484 -17.36727,-5.30112 -6.76954,-0.39931 -12.0206,0.52317 -17.92769,3.14981 -6.8305,3.03724 -13.95125,9.44077 -17.43245,15.67656 -1.15128,2.0623 -1.3399,2.00147 -2.68566,-0.86634 -2.94388,-6.27329 -8.92372,-12.53469 -15.71585,-16.45579 -10.812158,-6.24185 -24.205622,-6.71214 -33.809925,-1.18716 -2.09083,1.20276 -3.159777,1.55152 -3.438478,1.12187 -2.603289,-4.01328 -8.205213,-10.83445 -10.68151,-13.00632 -6.561497,-5.75482 -19.827132,-9.32686 -29.468964,-7.93514 l -4.260041,0.6149 -3.516373,-3.45876 c -3.414419,-3.35848 -7.531351,-6.29066 -11.4954601,-8.18734 -1.064607,-0.50937 -1.802728,-1.04411 -1.640269,-1.1883 0.162457,-0.14418 4.7820111,-1.44536 10.2656761,-2.89151 29.826054,-7.86568 59.353277,-11.34173 98.280724,-11.56998 23.4958,-0.13775 39.57984,1.08994 54.40803,4.15299 16.08738,3.32316 47.0249,11.6206 61.44321,16.47912 6.14757,2.07152 11.69579,4.33487 11.53944,4.7074 -0.0342,0.0816 -2.03733,0.96182 -4.45126,1.95601 z"
       id="path9760"
       inkscape:connector-curvature="0" /></g><g
     inkscape:groupmode="layer"
     id="layer6"
     inkscape:label="A"
     style="display:inline"><path
       style="display:inline;fill:#ffffff;fill-rule:nonzero;stroke:#000000;stroke-width:3;stroke-miterlimit:4;stroke-dasharray:none;stroke-opacity:1"
       inkscape:connector-curvature="0"
       id="path4200"
       d="m 124.62645,75.23195 -44.390815,99.53608 0,0 16.551217,2e-5 0,0 8.923898,-22.27167 37.67882,-3e-5 8.92391,22.27169 0,0 16.55119,-1e-5 0,0 -44.23822,-99.53608 0,0 0,0 0,0 0,0 z m 12.96633,63.53526 -25.9327,2e-5 12.96641,-31.19559 12.96629,31.19557 z"
       class="st2" /></g></svg>